<svg width="90" height="90" viewBox="0 0 90 90" fill="none" xmlns="http://www.w3.org/2000/svg">
<circle cx="45" cy="45" r="45" fill="#1C1C1C"/>
<path d="M25.7631 59.24C24.1898 59.24 22.7098 58.8933 21.3231 58.2C19.9631 57.5067 18.8698 56.52 18.0431 55.24L19.7631 53.24C20.5365 54.36 21.4298 55.2133 22.4431 55.8C23.4565 56.3867 24.5765 56.68 25.8031 56.68C29.2698 56.68 31.0031 54.6267 31.0031 50.52V33.56H20.7631V31H33.9231V50.4C33.9231 53.36 33.2298 55.5733 31.8431 57.04C30.4831 58.5067 28.4565 59.24 25.7631 59.24ZM55.0422 59.24C52.9355 59.24 50.9755 58.8933 49.1622 58.2C47.3755 57.48 45.8155 56.48 44.4822 55.2C43.1755 53.8933 42.1489 52.3867 41.4022 50.68C40.6822 48.9467 40.3222 47.0533 40.3222 45C40.3222 42.9467 40.6822 41.0667 41.4022 39.36C42.1489 37.6267 43.1755 36.12 44.4822 34.84C45.8155 33.5333 47.3755 32.5333 49.1622 31.84C50.9489 31.12 52.9089 30.76 55.0422 30.76C57.1489 30.76 59.0955 31.12 60.8822 31.84C62.6689 32.5333 64.2155 33.52 65.5222 34.8C66.8555 36.08 67.8822 37.5867 68.6022 39.32C69.3489 41.0533 69.7222 42.9467 69.7222 45C69.7222 47.0533 69.3489 48.9467 68.6022 50.68C67.8822 52.4133 66.8555 53.92 65.5222 55.2C64.2155 56.48 62.6689 57.48 60.8822 58.2C59.0955 58.8933 57.1489 59.24 55.0422 59.24ZM64.2022 64.56C63.3489 64.56 62.5222 64.4533 61.7222 64.24C60.9222 64.0267 60.1089 63.68 59.2822 63.2C58.4822 62.7467 57.6555 62.1467 56.8022 61.4C55.9489 60.6533 55.0155 59.7467 54.0022 58.68L57.2422 57.88C58.0689 58.8667 58.8689 59.68 59.6422 60.32C60.4422 60.96 61.2155 61.4267 61.9622 61.72C62.7355 62.04 63.4955 62.2 64.2422 62.2C66.3222 62.2 68.0955 61.3467 69.5622 59.64L71.0022 61.36C69.2422 63.4933 66.9755 64.56 64.2022 64.56ZM55.0422 56.6C56.7222 56.6 58.2689 56.32 59.6822 55.76C61.1222 55.1733 62.3622 54.3467 63.4022 53.28C64.4689 52.2133 65.2955 50.9867 65.8822 49.6C66.4689 48.1867 66.7622 46.6533 66.7622 45C66.7622 43.32 66.4689 41.7867 65.8822 40.4C65.2955 38.9867 64.4689 37.76 63.4022 36.72C62.3622 35.6533 61.1222 34.84 59.6822 34.28C58.2689 33.6933 56.7222 33.4 55.0422 33.4C53.3622 33.4 51.8022 33.6933 50.3622 34.28C48.9222 34.84 47.6689 35.6533 46.6022 36.72C45.5622 37.76 44.7355 38.9867 44.1222 40.4C43.5355 41.7867 43.2422 43.32 43.2422 45C43.2422 46.6533 43.5355 48.1867 44.1222 49.6C44.7355 50.9867 45.5622 52.2133 46.6022 53.28C47.6689 54.3467 48.9222 55.1733 50.3622 55.76C51.8022 56.32 53.3622 56.6 55.0422 56.6Z" fill="#59BAA9"/>
</svg>
